<svg width="66" height="66" viewBox="0 0 66 66" fill="none" xmlns="http://www.w3.org/2000/svg">
<mask id="mask0_54_6221" style="mask-type:luminance" maskUnits="userSpaceOnUse" x="4" y="4" width="58" height="57">
<path d="M4.77637 4.94287H61.0316V60.896H4.77637V4.94287Z" fill="white"/>
</mask>
<g mask="url(#mask0_54_6221)">
<mask id="mask1_54_6221" style="mask-type:luminance" maskUnits="userSpaceOnUse" x="4" y="4" width="57" height="57">
<path d="M32.9896 60.8179C17.4687 60.8179 4.96875 48.3179 4.96875 32.8075C4.96875 17.4481 17.4687 4.9585 32.9896 4.9585C48.3698 4.9585 60.8385 17.4481 60.8385 32.8075C60.8385 48.3335 48.3542 60.8179 32.9896 60.8179Z" fill="white"/>
</mask>
<g mask="url(#mask1_54_6221)">
<mask id="mask2_54_6221" style="mask-type:luminance" maskUnits="userSpaceOnUse" x="4" y="4" width="58" height="58">
<path d="M61.3333 4.22949H4V61.5628H61.3333V4.22949Z" fill="white"/>
</mask>
<g mask="url(#mask2_54_6221)">
<mask id="mask3_54_6221" style="mask-type:luminance" maskUnits="userSpaceOnUse" x="4" y="4" width="57" height="57">
<path d="M4.77637 4.94287H60.9899V60.896H4.77637V4.94287Z" fill="white"/>
</mask>
<g mask="url(#mask3_54_6221)">
<mask id="mask4_54_6221" style="mask-type:luminance" maskUnits="userSpaceOnUse" x="4" y="4" width="57" height="57">
<path d="M32.9896 60.8179C17.4687 60.8179 4.96875 48.3179 4.96875 32.8075C4.96875 17.4481 17.4687 4.9585 32.9896 4.9585C48.3698 4.9585 60.8385 17.4481 60.8385 32.8075C60.8385 48.3335 48.3542 60.8179 32.9896 60.8179Z" fill="white"/>
</mask>
<g mask="url(#mask4_54_6221)">
<path d="M918.856 -1027.58H-697.63V1257.7H918.856V-1027.58Z" fill="white"/>
</g>
</g>
</g>
</g>
</g>
<mask id="mask5_54_6221" style="mask-type:luminance" maskUnits="userSpaceOnUse" x="0" y="0" width="66" height="66">
<path d="M0 0H65.9792V65.8385H0V0Z" fill="white"/>
</mask>
<g mask="url(#mask5_54_6221)">
<mask id="mask6_54_6221" style="mask-type:luminance" maskUnits="userSpaceOnUse" x="0" y="0" width="66" height="66">
<path d="M32.9896 0.00537109C14.724 0.00537109 0 14.7137 0 32.8075C0 51.0627 14.724 65.7762 32.9896 65.7762C51.0885 65.7762 65.8125 51.0522 65.8125 32.8075C65.8125 14.7137 51.0885 0.00537109 32.9896 0.00537109ZM32.9896 9.771C45.6354 9.771 56.0417 20.1772 56.0417 32.8075C56.0417 45.6147 45.625 56.0054 32.9896 56.0054C20.1875 56.0054 9.78125 45.5991 9.78125 32.8075C9.78125 20.1616 20.1875 9.771 32.9896 9.771Z" fill="white"/>
</mask>
<g mask="url(#mask6_54_6221)">
<mask id="mask7_54_6221" style="mask-type:luminance" maskUnits="userSpaceOnUse" x="0" y="-2" width="67" height="69">
<path d="M66.6667 -1.104H0V66.896H66.6667V-1.104Z" fill="white"/>
</mask>
<g mask="url(#mask7_54_6221)">
<mask id="mask8_54_6221" style="mask-type:luminance" maskUnits="userSpaceOnUse" x="0" y="0" width="66" height="66">
<path d="M0 0H65.9792V65.8385H0V0Z" fill="white"/>
</mask>
<g mask="url(#mask8_54_6221)">
<mask id="mask9_54_6221" style="mask-type:luminance" maskUnits="userSpaceOnUse" x="0" y="0" width="66" height="66">
<path d="M32.9896 0.00537109C14.724 0.00537109 0 14.7137 0 32.8075C0 51.0627 14.724 65.7762 32.9896 65.7762C51.0885 65.7762 65.8125 51.0522 65.8125 32.8075C65.8125 14.7137 51.0885 0.00537109 32.9896 0.00537109ZM32.9896 9.771C45.6354 9.771 56.0417 20.1772 56.0417 32.8075C56.0417 45.6147 45.625 56.0054 32.9896 56.0054C20.1875 56.0054 9.78125 45.5991 9.78125 32.8075C9.78125 20.1616 20.1875 9.771 32.9896 9.771Z" fill="white"/>
</mask>
<g mask="url(#mask9_54_6221)">
<path d="M918.856 -1027.58H-697.63V1257.7H918.856V-1027.58Z" fill="#FBB316"/>
</g>
</g>
</g>
</g>
</g>
<mask id="mask10_54_6221" style="mask-type:luminance" maskUnits="userSpaceOnUse" x="27" y="20" width="13" height="25">
<path d="M27.2236 20.646H31.5413V40.646H27.2236V20.646ZM27.2236 40.646H39.8695V44.495H27.2236V40.646Z" fill="white"/>
</mask>
<g mask="url(#mask10_54_6221)">
<mask id="mask11_54_6221" style="mask-type:luminance" maskUnits="userSpaceOnUse" x="26" y="20" width="14" height="26">
<path d="M39.9993 20.2295H26.666V45.5628H39.9993V20.2295Z" fill="white"/>
</mask>
<g mask="url(#mask11_54_6221)">
<mask id="mask12_54_6221" style="mask-type:luminance" maskUnits="userSpaceOnUse" x="27" y="20" width="13" height="25">
<path d="M27.2236 20.646H31.5413V40.646H27.2236V20.646ZM27.2236 40.646H39.8695V44.495H27.2236V40.646Z" fill="white"/>
</mask>
<g mask="url(#mask12_54_6221)">
<path d="M918.856 -1027.58H-697.63V1257.7H918.856V-1027.58Z" fill="#231F20"/>
</g>
</g>
</g>
</svg>
