<svg width="17" height="15" viewBox="0 0 17 15" fill="none" xmlns="http://www.w3.org/2000/svg">
<path fill-rule="evenodd" clip-rule="evenodd" d="M15.992 6.14001H15.164C15.0878 6.14106 15.015 6.17208 14.9615 6.22635C14.908 6.28062 14.878 6.35379 14.878 6.43001V8.75001H14.636L14.65 7.32001L14.421 2.36201C14.421 1.35601 13.964 0.466011 13.265 0.466011H12.008C12.0052 0.342621 11.9546 0.225132 11.867 0.138233C11.7793 0.0513341 11.6614 0.00178835 11.538 9.64253e-06H4.798C4.73646 -0.000385427 4.67544 0.0113631 4.61844 0.0345803C4.56145 0.0577976 4.50959 0.0920278 4.46584 0.135313C4.42209 0.178598 4.38731 0.230089 4.36348 0.286835C4.33966 0.34358 4.32726 0.404468 4.327 0.466011H3.027C2.171 0.466011 1.871 1.41401 1.871 2.36201L1.685 7.33501V8.75001H1.399V6.43001C1.39901 6.35396 1.36914 6.28094 1.31584 6.2267C1.26253 6.17245 1.19004 6.14132 1.114 6.14001H0.286C0.209783 6.14106 0.137043 6.17208 0.0835199 6.22635C0.0299965 6.28062 -7.24989e-06 6.35379 1.31403e-09 6.43001V9.15801C1.31403e-09 9.31801 0.129 9.45001 0.286 9.45001H1.114C1.16952 9.45106 1.22412 9.43576 1.271 9.40601H1.685V12.95C1.685 13.343 1.942 13.664 2.328 13.693V14.51C2.328 14.714 2.485 14.875 2.685 14.875H3.841C4.041 14.875 4.198 14.715 4.198 14.51V13.693H12.094V14.51C12.094 14.714 12.251 14.875 12.451 14.875H13.608C13.808 14.875 13.964 14.715 13.964 14.51V13.693C14.379 13.693 14.621 13.358 14.621 12.935L14.65 9.39101H15.021C15.064 9.42101 15.121 9.43501 15.178 9.43501H16.006C16.0826 9.43396 16.1556 9.40266 16.2092 9.34796C16.2628 9.29326 16.2925 9.21958 16.292 9.14301V6.43101C16.278 6.27101 16.149 6.13901 15.992 6.13901V6.14001ZM3.827 12.25C3.64771 12.2498 3.4756 12.1795 3.34743 12.0541C3.21926 11.9288 3.14518 11.7583 3.141 11.579C3.141 11.199 3.441 10.908 3.827 10.908C4.198 10.908 4.512 11.214 4.512 11.578C4.50809 11.7573 4.43426 11.9279 4.30627 12.0534C4.17829 12.179 4.00629 12.2495 3.827 12.25ZM2.827 9.45001C2.613 9.45001 2.556 9.27501 2.556 9.07001L2.784 2.01201C2.784 1.80801 2.842 1.63201 3.056 1.63201C3.056 1.63201 5.412 1.40001 8.082 1.40001C10.909 1.40001 13.108 1.63301 13.108 1.63301C13.322 1.63301 13.493 1.80801 13.493 2.01301L13.722 9.07001C13.722 9.27501 13.55 9.45001 13.336 9.45001C13.336 9.45001 10.909 9.91601 8.21 9.91601C5.426 9.93101 2.827 9.45001 2.827 9.45001ZM11.766 11.579C11.766 11.199 12.066 10.908 12.451 10.908C12.836 10.908 13.136 11.214 13.136 11.578C13.136 11.958 12.836 12.25 12.451 12.25C12.362 12.2509 12.2736 12.2343 12.191 12.2011C12.1084 12.1679 12.0331 12.1187 11.9695 12.0564C11.9059 11.9941 11.8552 11.9199 11.8203 11.8379C11.7854 11.756 11.7669 11.668 11.766 11.579Z" fill="#07A8FF"/>
</svg>
